<svg width="112" height="23" viewBox="0 0 112 23" fill="none" xmlns="http://www.w3.org/2000/svg">
<path d="M97.5782 3.14193H38.6025V19.2186H107.636L97.5782 3.14193Z" fill="#5F5F5F"/>
<path d="M101.262 3.14193H99.0879L109.138 19.2186H111.364L101.262 3.14193Z" fill="#A8A8A8"/>
<path d="M94.2636 3.14193H0.755859V19.2186H104.352L94.2636 3.14193Z" fill="#070707"/>
<path d="M91.7025 7.77124L92.6289 9.55012L94.7012 9.83394L93.2018 11.2175L93.5553 13.1712L91.7025 12.2489L89.8471 13.1712L90.2005 11.2175L88.7012 9.83394L90.7735 9.55012L91.7025 7.77124Z" fill="white"/>
<path d="M24.459 3.17014V22.0883L22.6472 19.1714H10.6523L8.561 15.8042V3.17014L7.20138 0.958374H23.0456L24.459 3.17014Z" fill="black" stroke="white" stroke-width="0.12"/>
<path d="M17.42 12.9381C17.3455 13.3599 17.1214 14.4416 17.0257 14.7554H11.835V14.4848C11.835 14.4416 11.8685 14.4059 11.9102 14.4026C12.7888 14.3187 12.8895 14.2324 12.8895 13.3175V9.0454C12.8895 8.1048 12.7937 8.03922 11.9299 7.97446V7.68971C11.9299 7.64405 11.9667 7.60669 12.0117 7.60669H14.9919C15.0369 7.60669 15.0737 7.64405 15.0737 7.68971V7.97446C14.2319 8.03922 14.1256 8.09318 14.1256 9.0454V13.3499C14.1256 13.902 14.1788 14.0962 14.3923 14.2042C14.5845 14.3013 14.9142 14.3121 15.2979 14.3121C15.8305 14.3121 16.2248 14.2473 16.4702 13.9659C16.6641 13.7492 16.8473 13.413 17.0404 12.9116C17.0559 12.8717 17.0977 12.8493 17.1377 12.8601L17.42 12.9381Z" fill="#F8F8F8"/>
<path d="M21.8768 9.62747C21.764 9.08587 21.6198 8.77308 21.4661 8.57468C21.2808 8.36588 21.0656 8.29308 20.3569 8.29308H19.7609V13.3794C19.7609 14.2322 19.8484 14.3338 20.7455 14.4154C20.7865 14.4194 20.8181 14.4538 20.8181 14.4954V14.7554H17.5528V14.4946C17.5528 14.453 17.5844 14.4186 17.6253 14.4154C18.472 14.3338 18.5595 14.2314 18.5595 13.3802V8.29388H18.0771C17.1941 8.29388 16.9884 8.40828 16.8552 8.59628C16.6912 8.79388 16.5777 9.12747 16.4444 9.63867H16.085C16.1338 8.94108 16.1922 8.23388 16.2158 7.68189C16.2174 7.63949 16.2521 7.60669 16.2939 7.60669H16.4137C16.4397 7.60669 16.4634 7.62029 16.4783 7.64189C16.6242 7.84829 16.7676 7.86749 17.0507 7.86749H21.2926C21.5678 7.86749 21.6829 7.81069 21.8547 7.63229C21.8697 7.61709 21.8902 7.60749 21.9115 7.60749H22.036C22.0794 7.60749 22.1141 7.64189 22.1149 7.68589C22.1196 8.16909 22.1692 8.98668 22.2276 9.59867L21.8768 9.62747Z" fill="#F8F8F8"/>
<path d="M28.9377 8.22228V8.52828C29.6127 8.58228 29.7027 8.63628 29.7027 9.41928V12.9833C29.7027 13.7573 29.6127 13.8113 28.8477 13.8833V14.1713H31.1697C32.3217 14.1713 33.2757 13.9373 33.9597 13.4153C34.6707 12.8753 35.1207 12.0743 35.1207 10.9673C35.1207 10.0943 34.7697 9.43728 34.3107 9.01428C33.7167 8.46528 32.8347 8.22228 31.6647 8.22228H28.9377ZM30.7467 9.22128C30.7467 8.90628 30.7737 8.77128 30.8547 8.69928C30.9267 8.63628 31.1427 8.57328 31.5117 8.57328C32.1507 8.57328 32.6727 8.73528 33.0687 9.06828C33.6267 9.48228 33.9327 10.2293 33.9327 11.1293C33.9327 12.6773 33.0957 13.7933 31.6287 13.7933C30.9627 13.7933 30.7467 13.5953 30.7467 12.9113V9.22128Z" fill="white"/>
<path d="M38.7805 14.1713V13.8833C38.0695 13.8113 37.9885 13.7573 37.9885 12.9833V9.41928C37.9885 8.63628 38.0695 8.58228 38.7805 8.52828V8.22228H36.1435V8.52828C36.8635 8.58228 36.9445 8.63628 36.9445 9.41928V12.9833C36.9445 13.7573 36.8635 13.8113 36.1435 13.8833V14.1713H38.7805Z" fill="white"/>
<path d="M45.4851 14.1713V13.8833C44.8911 13.8023 44.7651 13.7033 44.4681 12.9023C43.8651 11.3183 43.2801 9.68928 42.6951 8.08728L42.2901 8.18628L40.3911 12.9203C40.0671 13.7123 39.9501 13.7933 39.3471 13.8833L39.3381 14.1713H41.3991V13.8833C40.7151 13.7933 40.6611 13.6853 40.8231 13.1903C40.9401 12.8303 41.0661 12.4703 41.1831 12.1283H43.0461C43.2261 12.5783 43.3791 13.0103 43.4871 13.3253C43.6131 13.6943 43.5591 13.7933 42.9921 13.8833V14.1713H45.4851ZM42.9021 11.6783H41.3451C41.5971 10.9853 41.8581 10.2653 42.1371 9.54528H42.1551L42.9021 11.6783Z" fill="white"/>
<path d="M53.9963 14.1713V13.8833C53.2403 13.8023 53.2043 13.7393 53.1863 12.8393L53.0963 9.48228C53.0783 8.64528 53.1233 8.60028 53.8883 8.52828V8.22228H52.1513L50.1893 12.4703L48.2633 8.22228H46.5173V8.52828C47.3273 8.60028 47.3903 8.69028 47.3093 9.79728L47.1743 11.6243C47.1023 12.5873 47.0393 13.0283 46.9943 13.3343C46.9223 13.6763 46.7423 13.8203 46.2113 13.8743V14.1713H48.4163V13.8743C47.8043 13.8113 47.6063 13.7393 47.5793 13.3253C47.5523 13.0013 47.5523 12.5783 47.5883 11.8313L47.7143 9.34728H47.7413L49.7123 14.1173H49.9373L52.0793 9.24828H52.1153L52.1423 12.8393C52.1513 13.7393 52.1063 13.8023 51.3953 13.8833V14.1713H53.9963Z" fill="white"/>
<path d="M58.1829 8.08728C56.1399 8.08728 54.9609 9.62628 54.9609 11.2283C54.9609 12.9923 56.2839 14.3063 58.0749 14.3063C59.8119 14.3063 61.2519 13.1003 61.2519 11.1293C61.2519 9.31128 59.8389 8.08728 58.1919 8.08728H58.1829ZM58.0119 8.45628C59.1549 8.45628 60.0279 9.50928 60.0279 11.3723C60.0279 13.0913 59.2089 13.9463 58.2549 13.9463C57.0039 13.9463 56.1849 12.6593 56.1849 11.0303C56.1849 9.37428 57.0219 8.45628 58.0029 8.45628H58.0119Z" fill="white"/>
<path d="M68.6172 8.22228H66.3942V8.51928C67.0602 8.55528 67.2672 8.69928 67.3122 9.10428C67.3392 9.36528 67.3752 9.78828 67.3752 10.6163V12.4883H67.3482L63.6402 8.22228H62.0742V8.51928C62.4882 8.55528 62.6862 8.62728 62.8752 8.85228C63.0462 9.06828 63.0642 9.18528 63.0642 9.80628V11.7503C63.0642 12.5693 63.0192 12.9833 62.9832 13.2893C62.9382 13.7033 62.7132 13.8383 62.1912 13.8833V14.1713H64.4232V13.8833C63.7662 13.8383 63.5862 13.6943 63.5412 13.2623C63.5142 12.9833 63.4782 12.5693 63.4782 11.7503V9.59028H63.4962L67.4202 14.2613H67.7982V10.6163C67.7982 9.78828 67.8342 9.36528 67.8702 9.08628C67.9152 8.66328 68.1132 8.54628 68.6172 8.51928V8.22228Z" fill="white"/>
<path d="M69.541 8.22228V8.52828C70.216 8.58228 70.306 8.63628 70.306 9.41928V12.9833C70.306 13.7573 70.216 13.8113 69.451 13.8833V14.1713H71.773C72.925 14.1713 73.879 13.9373 74.563 13.4153C75.274 12.8753 75.724 12.0743 75.724 10.9673C75.724 10.0943 75.373 9.43728 74.914 9.01428C74.32 8.46528 73.438 8.22228 72.268 8.22228H69.541ZM71.35 9.22128C71.35 8.90628 71.377 8.77128 71.458 8.69928C71.53 8.63628 71.746 8.57328 72.115 8.57328C72.754 8.57328 73.276 8.73528 73.672 9.06828C74.23 9.48228 74.536 10.2293 74.536 11.1293C74.536 12.6773 73.699 13.7933 72.232 13.7933C71.566 13.7933 71.35 13.5953 71.35 12.9113V9.22128Z" fill="white"/>
<path d="M83.222 7.77124L84.1484 9.55012L86.2207 9.83394L84.7214 11.2175L85.0748 13.1712L83.222 12.2489L81.3666 13.1712L81.72 11.2175L80.2207 9.83394L82.293 9.55012L83.222 7.77124Z" fill="white"/>
</svg>
