<svg width="115" height="19" viewBox="0 0 115 19" fill="none" xmlns="http://www.w3.org/2000/svg">
<path d="M114.249 18.0396H0.248535V0.0395508L114.249 0.0395508V18.0396Z" fill="#838383"/>
<path d="M35.4824 7.4856C35.4104 6.9096 35.3564 6.5226 35.3204 6.1806C35.0774 6.0996 34.6094 5.9556 34.0784 5.9556C32.8274 5.9556 32.0624 6.7206 32.0624 7.6836C32.0624 8.6196 32.8274 9.0966 33.6284 9.5106C34.3304 9.8706 34.7714 10.2036 34.7714 10.7976C34.7714 11.4186 34.3934 11.8236 33.7724 11.8236C32.8544 11.8236 32.3594 10.8246 32.1974 10.2486L31.9004 10.3386C31.9544 10.8426 32.0804 11.6346 32.1614 11.8506C32.2604 11.8956 32.4224 11.9676 32.6744 12.0396C32.9174 12.1206 33.2414 12.1746 33.5924 12.1746C34.8974 12.1746 35.7614 11.3826 35.7614 10.3656C35.7614 9.4116 35.0144 8.9346 34.1414 8.5116C33.3584 8.1246 32.9714 7.8186 32.9714 7.2516C32.9714 6.7386 33.3314 6.3066 33.9344 6.3066C34.6994 6.3066 35.0144 6.9726 35.1854 7.5486L35.4824 7.4856Z" fill="white"/>
<path d="M41.9727 7.5846C41.9187 7.0266 41.8737 6.2706 41.8737 5.8656H41.6667C41.5047 6.0366 41.4057 6.0906 41.1537 6.0906H37.4367C37.1757 6.0906 37.0497 6.0726 36.9147 5.8656H36.7077C36.6897 6.3516 36.6357 6.9906 36.5907 7.6206H36.9057C37.0227 7.1796 37.1217 6.8916 37.2657 6.7206C37.3827 6.5586 37.5627 6.4596 38.3367 6.4596H38.7597V10.8516C38.7597 11.6076 38.6787 11.6796 37.8777 11.7516V12.0396H40.7397V11.7516C39.8937 11.6796 39.8127 11.6076 39.8127 10.8516V6.4596H40.3347C40.9557 6.4596 41.1447 6.5226 41.3067 6.7026C41.4417 6.8736 41.5677 7.1436 41.6667 7.6116L41.9727 7.5846Z" fill="white"/>
<path d="M48.1407 12.0396V11.7516C47.5467 11.6706 47.4207 11.5716 47.1237 10.7706C46.5207 9.1866 45.9357 7.5576 45.3507 5.9556L44.9457 6.0546L43.0467 10.7886C42.7227 11.5806 42.6057 11.6616 42.0027 11.7516L41.9937 12.0396H44.0547V11.7516C43.3707 11.6616 43.3167 11.5536 43.4787 11.0586C43.5957 10.6986 43.7217 10.3386 43.8387 9.9966H45.7017C45.8817 10.4466 46.0347 10.8786 46.1427 11.1936C46.2687 11.5626 46.2147 11.6616 45.6477 11.7516V12.0396H48.1407ZM45.5577 9.5466H44.0007C44.2527 8.8536 44.5137 8.1336 44.7927 7.4136H44.8107L45.5577 9.5466Z" fill="white"/>
<path d="M55.3828 6.0906H53.1598V6.3876C53.8258 6.4236 54.0328 6.5676 54.0778 6.9726C54.1048 7.2336 54.1408 7.6566 54.1408 8.4846V10.3566H54.1138L50.4058 6.0906H48.8398V6.3876C49.2538 6.4236 49.4518 6.4956 49.6408 6.7206C49.8118 6.9366 49.8298 7.0536 49.8298 7.6746V9.6186C49.8298 10.4376 49.7848 10.8516 49.7488 11.1576C49.7038 11.5716 49.4788 11.7066 48.9568 11.7516V12.0396H51.1888V11.7516C50.5318 11.7066 50.3518 11.5626 50.3068 11.1306C50.2798 10.8516 50.2438 10.4376 50.2438 9.6186V7.4586H50.2618L54.1858 12.1296H54.5638V8.4846C54.5638 7.6566 54.5998 7.2336 54.6358 6.9546C54.6808 6.5316 54.8788 6.4146 55.3828 6.3876V6.0906Z" fill="white"/>
<path d="M56.3066 6.0906V6.3966C56.9816 6.4506 57.0716 6.5046 57.0716 7.2876V10.8516C57.0716 11.6256 56.9816 11.6796 56.2166 11.7516V12.0396H58.5386C59.6906 12.0396 60.6446 11.8056 61.3286 11.2836C62.0396 10.7436 62.4896 9.9426 62.4896 8.8356C62.4896 7.9626 62.1386 7.3056 61.6796 6.8826C61.0856 6.3336 60.2036 6.0906 59.0336 6.0906H56.3066ZM58.1156 7.0896C58.1156 6.7746 58.1426 6.6396 58.2236 6.5676C58.2956 6.5046 58.5116 6.4416 58.8806 6.4416C59.5196 6.4416 60.0416 6.6036 60.4376 6.9366C60.9956 7.3506 61.3016 8.0976 61.3016 8.9976C61.3016 10.5456 60.4646 11.6616 58.9976 11.6616C58.3316 11.6616 58.1156 11.4636 58.1156 10.7796V7.0896Z" fill="white"/>
<path d="M69.1367 12.0396V11.7516C68.5427 11.6706 68.4167 11.5716 68.1197 10.7706C67.5167 9.1866 66.9317 7.5576 66.3467 5.9556L65.9417 6.0546L64.0427 10.7886C63.7187 11.5806 63.6017 11.6616 62.9987 11.7516L62.9897 12.0396H65.0507V11.7516C64.3667 11.6616 64.3127 11.5536 64.4747 11.0586C64.5917 10.6986 64.7177 10.3386 64.8347 9.9966H66.6977C66.8777 10.4466 67.0307 10.8786 67.1387 11.1936C67.2647 11.5626 67.2107 11.6616 66.6437 11.7516V12.0396H69.1367ZM66.5537 9.5466H64.9967C65.2487 8.8536 65.5097 8.1336 65.7887 7.4136H65.8067L66.5537 9.5466Z" fill="white"/>
<path d="M75.6588 11.8506C75.4518 11.7786 75.2718 11.6706 75.0558 11.4456C74.8668 11.2296 74.6598 10.9596 74.3358 10.4556C74.0568 10.0506 73.6968 9.4386 73.5438 9.1506C74.1918 8.8896 74.7048 8.4306 74.7048 7.6386C74.7048 7.0716 74.4618 6.6666 74.0928 6.4236C73.7328 6.1716 73.2738 6.0906 72.5178 6.0906H70.0518V6.3966C70.7448 6.4506 70.8258 6.5226 70.8258 7.2696V10.8426C70.8258 11.6076 70.7268 11.6796 70.0158 11.7516V12.0396H72.6528V11.7516C71.9328 11.6796 71.8518 11.6076 71.8518 10.8426V9.4656H72.0678C72.4458 9.4656 72.6078 9.5826 72.7698 9.8436C73.0398 10.3116 73.3188 10.8336 73.5888 11.2476C73.9848 11.8326 74.3538 12.0666 75.3168 12.1026C75.4248 12.1116 75.5418 12.1206 75.6138 12.1206L75.6588 11.8506ZM71.8518 9.1236V6.8916C71.8518 6.6756 71.8788 6.5766 71.9418 6.5226C72.0048 6.4686 72.1398 6.4326 72.3918 6.4326C72.9858 6.4326 73.5888 6.7836 73.5888 7.7736C73.5888 8.2506 73.4538 8.6106 73.1298 8.8806C72.9048 9.0606 72.5988 9.1236 72.1668 9.1236H71.8518Z" fill="white"/>
<path d="M76.371 6.0906V6.3966C77.046 6.4506 77.136 6.5046 77.136 7.2876V10.8516C77.136 11.6256 77.046 11.6796 76.281 11.7516V12.0396H78.603C79.755 12.0396 80.709 11.8056 81.393 11.2836C82.104 10.7436 82.554 9.9426 82.554 8.8356C82.554 7.9626 82.203 7.3056 81.744 6.8826C81.15 6.3336 80.268 6.0906 79.098 6.0906H76.371ZM78.18 7.0896C78.18 6.7746 78.207 6.6396 78.288 6.5676C78.36 6.5046 78.576 6.4416 78.945 6.4416C79.584 6.4416 80.106 6.6036 80.502 6.9366C81.06 7.3506 81.366 8.0976 81.366 8.9976C81.366 10.5456 80.529 11.6616 79.062 11.6616C78.396 11.6616 78.18 11.4636 78.18 10.7796V7.0896Z" fill="white"/>
<circle cx="27.5063" cy="9.03955" r="1" fill="white"/>
<circle cx="86.811" cy="9.03955" r="1" fill="white"/>
</svg>
