<svg width="112" height="23" viewBox="0 0 112 23" fill="none" xmlns="http://www.w3.org/2000/svg">
<path d="M97.5782 2.94552H38.6025V19.0222H107.636L97.5782 2.94552Z" fill="#234580"/>
<path d="M101.262 2.94552H99.0879L109.138 19.0222H111.364L101.262 2.94552Z" fill="#5F80B9"/>
<path d="M94.2636 2.94552H0.755859V19.0222H104.352L94.2636 2.94552Z" fill="#08265A"/>
<path d="M24.459 2.97373V21.8919L22.6472 18.975H10.6523L8.561 15.6078V2.97373L7.20138 0.761963H23.0456L24.459 2.97373Z" fill="#08265A" stroke="white" stroke-width="0.12"/>
<path d="M17.42 12.7416C17.3455 13.1633 17.1214 14.2451 17.0257 14.5589H11.835V14.2882C11.835 14.2451 11.8685 14.2094 11.9102 14.206C12.7888 14.1222 12.8895 14.0359 12.8895 13.121V8.84887C12.8895 7.90827 12.7937 7.84268 11.9299 7.77793V7.49317C11.9299 7.44751 11.9667 7.41016 12.0117 7.41016H14.9919C15.0369 7.41016 15.0737 7.44751 15.0737 7.49317V7.77793C14.2319 7.84268 14.1256 7.89665 14.1256 8.84887V13.1534C14.1256 13.7054 14.1788 13.8997 14.3923 14.0076C14.5845 14.1048 14.9142 14.1156 15.2979 14.1156C15.8305 14.1156 16.2248 14.0508 16.4702 13.7694C16.6641 13.5527 16.8473 13.2165 17.0404 12.715C17.0559 12.6752 17.0977 12.6528 17.1377 12.6636L17.42 12.7416Z" fill="#F8F8F8"/>
<path d="M21.8768 9.43093C21.764 8.88934 21.6198 8.57654 21.4661 8.37815C21.2808 8.16935 21.0656 8.09655 20.3569 8.09655H19.7609V13.1829C19.7609 14.0357 19.8484 14.1373 20.7455 14.2189C20.7865 14.2229 20.8181 14.2573 20.8181 14.2989V14.5589H17.5528V14.2981C17.5528 14.2565 17.5844 14.2221 17.6253 14.2189C18.472 14.1373 18.5595 14.0349 18.5595 13.1837V8.09735H18.0771C17.1941 8.09735 16.9884 8.21175 16.8552 8.39975C16.6912 8.59734 16.5777 8.93094 16.4444 9.44213H16.085C16.1338 8.74454 16.1922 8.03735 16.2158 7.48536C16.2174 7.44296 16.2521 7.41016 16.2939 7.41016H16.4137C16.4397 7.41016 16.4634 7.42376 16.4783 7.44536C16.6242 7.65175 16.7676 7.67095 17.0507 7.67095H21.2926C21.5678 7.67095 21.6829 7.61415 21.8547 7.43576C21.8697 7.42056 21.8902 7.41096 21.9115 7.41096H22.036C22.0794 7.41096 22.1141 7.44536 22.1149 7.48936C22.1196 7.97255 22.1692 8.79014 22.2276 9.40214L21.8768 9.43093Z" fill="#F8F8F8"/>
<path d="M44.0503 12.4179C43.8973 12.8139 43.7173 13.1199 43.5553 13.3089C43.3392 13.5429 43.0333 13.6059 42.4663 13.6059C42.0793 13.6059 41.7463 13.5969 41.5843 13.5069C41.4043 13.4079 41.3593 13.1919 41.3593 12.7599V11.1219H42.0883C42.8803 11.1219 42.9793 11.1669 43.0963 11.8239H43.4023V10.0059H43.0963C42.9793 10.6449 42.8893 10.7079 42.0883 10.7079H41.3593V8.7009C41.3593 8.4219 41.3863 8.3949 41.7013 8.3949H42.2683C42.8443 8.3949 43.0873 8.4579 43.2403 8.6379C43.3843 8.8269 43.4923 9.0789 43.5823 9.4299L43.8883 9.3849C43.8523 8.8539 43.8163 8.2239 43.8073 8.0259H39.5413V8.3229C40.2253 8.3859 40.3063 8.4219 40.3063 9.2319V12.7869C40.3063 13.5519 40.2253 13.6149 39.4062 13.6869V13.9749H44.0322C44.1043 13.6959 44.2933 12.8499 44.3563 12.4809L44.0503 12.4179Z" fill="white"/>
<path d="M49.5294 12.3819C49.3584 12.8319 49.1964 13.1289 49.0254 13.3179C48.8184 13.5519 48.4854 13.6059 48.0354 13.6059C47.7114 13.6059 47.4324 13.5969 47.2704 13.5159C47.0904 13.4259 47.0454 13.2639 47.0454 12.8049V9.2229C47.0454 8.4309 47.1354 8.3859 47.8464 8.3319V8.0259H45.1914V8.3319C45.9204 8.3859 46.0014 8.4399 46.0014 9.2229V12.7779C46.0014 13.5609 45.9114 13.6149 45.1104 13.6869V13.9749H49.4934C49.5744 13.7139 49.7634 12.8139 49.8264 12.4629L49.5294 12.3819Z" fill="white"/>
<path d="M53.2336 13.9749V13.6869C52.5226 13.6149 52.4416 13.5609 52.4416 12.7869V9.2229C52.4416 8.4399 52.5226 8.3859 53.2336 8.3319V8.0259H50.5966V8.3319C51.3166 8.3859 51.3976 8.4399 51.3976 9.2229V12.7869C51.3976 13.5609 51.3166 13.6149 50.5966 13.6869V13.9749H53.2336Z" fill="white"/>
<path d="M59.597 9.5199C59.543 8.9619 59.498 8.2059 59.498 7.8009H59.291C59.129 7.9719 59.03 8.0259 58.778 8.0259H55.061C54.8 8.0259 54.674 8.0079 54.539 7.8009H54.332C54.314 8.2869 54.26 8.9259 54.215 9.5559H54.53C54.647 9.1149 54.746 8.8269 54.89 8.6559C55.007 8.4939 55.187 8.3949 55.961 8.3949H56.384V12.7869C56.384 13.5429 56.303 13.6149 55.502 13.6869V13.9749H58.364V13.6869C57.518 13.6149 57.437 13.5429 57.437 12.7869V8.3949H57.959C58.58 8.3949 58.769 8.4579 58.931 8.6379C59.066 8.8089 59.192 9.0789 59.291 9.5469L59.597 9.5199Z" fill="white"/>
<path d="M65.0811 12.4179C64.9281 12.8139 64.7481 13.1199 64.5861 13.3089C64.3701 13.5429 64.0641 13.6059 63.4971 13.6059C63.1101 13.6059 62.7771 13.5969 62.6151 13.5069C62.4351 13.4079 62.3901 13.1919 62.3901 12.7599V11.1219H63.1191C63.9111 11.1219 64.0101 11.1669 64.1271 11.8239H64.4331V10.0059H64.1271C64.0101 10.6449 63.9201 10.7079 63.1191 10.7079H62.3901V8.7009C62.3901 8.4219 62.4171 8.3949 62.7321 8.3949H63.2991C63.8751 8.3949 64.1181 8.4579 64.2711 8.6379C64.4151 8.8269 64.5231 9.0789 64.6131 9.4299L64.9191 9.3849C64.8831 8.8539 64.8471 8.2239 64.8381 8.0259H60.5721V8.3229C61.2561 8.3859 61.3371 8.4219 61.3371 9.2319V12.7869C61.3371 13.5519 61.2561 13.6149 60.4371 13.6869V13.9749H65.0631C65.1351 13.6959 65.3241 12.8499 65.3871 12.4809L65.0811 12.4179Z" fill="white"/>
<path d="M83.222 7.57483L84.1484 9.35371L86.2207 9.63753L84.7214 11.0211L85.0748 12.9748L83.222 12.0524L81.3666 12.9748L81.72 11.0211L80.2207 9.63753L82.293 9.35371L83.222 7.57483Z" fill="white"/>
</svg>
