<svg width="54" height="16" viewBox="0 0 54 16" fill="none" xmlns="http://www.w3.org/2000/svg">
<path d="M7.97852 2.74011L48.048 2.74011C50.9202 2.74011 53.2485 5.06845 53.2485 7.94059V7.94059C53.2485 10.8127 50.9202 13.1411 48.048 13.1411H7.97852V2.74011Z" fill="#1AAF46"/>
<circle cx="8.5097" cy="7.94085" r="7.75384" fill="white"/>
<path d="M9.20995 10.3678L7.43695 12.1191C7.24049 12.3132 6.92392 12.3113 6.72986 12.1148L4.97848 10.3418L3.30482 8.6467C3.11084 8.45023 3.11282 8.13371 3.30925 7.93969L4.72652 6.53969C4.92301 6.3456 5.23965 6.34758 5.4337 6.54411L7.10719 8.23906L11.606 3.76435C11.8022 3.56913 12.1198 3.57053 12.3143 3.76747L13.7143 5.18474C13.9079 5.38072 13.9065 5.69636 13.7112 5.89062L9.20995 10.3678Z" fill="#1AAF46"/>
<path d="M21.324 9.54404L22.7865 5.32178H23.5248L21.6264 10.4405H21.0287L19.1338 5.32178H19.8686L21.324 9.54404Z" fill="white"/>
<path d="M27.3952 8.07451H25.1769V9.88857H27.7538V10.4405H24.5019V5.32178H27.7187V5.87725H25.1769V7.52256H27.3952V8.07451Z" fill="white"/>
<path d="M30.7594 8.36982H29.5571V10.4405H28.8785V5.32178H30.5731C31.1496 5.32178 31.5926 5.45303 31.902 5.71553C32.2137 5.97803 32.3696 6.36006 32.3696 6.86162C32.3696 7.18037 32.2828 7.45811 32.1094 7.69482C31.9383 7.93154 31.6992 8.1085 31.3922 8.22568L32.5946 10.3983V10.4405H31.8703L30.7594 8.36982ZM29.5571 7.81787H30.5942C30.9293 7.81787 31.1953 7.73115 31.3922 7.55771C31.5914 7.38428 31.691 7.15225 31.691 6.86162C31.691 6.54521 31.5961 6.30264 31.4063 6.13389C31.2188 5.96514 30.9469 5.87959 30.5906 5.87725H29.5571V7.81787Z" fill="white"/>
<path d="M34.331 10.4405H33.656V5.32178H34.331V10.4405Z" fill="white"/>
<path d="M38.6795 8.17998H36.5315V10.4405H35.8565V5.32178H39.0276V5.87725H36.5315V7.62803H38.6795V8.17998Z" fill="white"/>
<path d="M40.8484 10.4405H40.1734V5.32178H40.8484V10.4405Z" fill="white"/>
<path d="M45.2673 8.07451H43.0489V9.88857H45.6259V10.4405H42.3739V5.32178H45.5907V5.87725H43.0489V7.52256H45.2673V8.07451Z" fill="white"/>
<path d="M46.7541 10.4405V5.32178H48.199C48.6443 5.32178 49.0381 5.42021 49.3803 5.61709C49.7224 5.81396 49.9861 6.09404 50.1713 6.45732C50.3588 6.82061 50.4537 7.23779 50.456 7.70889V8.03584C50.456 8.51865 50.3623 8.9417 50.1748 9.30498C49.9896 9.66826 49.7236 9.94717 49.3767 10.1417C49.0322 10.3362 48.6303 10.4358 48.1709 10.4405H46.7541ZM47.4291 5.87725V9.88857H48.1392C48.6596 9.88857 49.0639 9.72686 49.3521 9.40342C49.6428 9.07998 49.7881 8.61943 49.7881 8.02178V7.72295C49.7881 7.1417 49.651 6.69053 49.3767 6.36943C49.1049 6.046 48.7181 5.88193 48.2166 5.87725H47.4291Z" fill="white"/>
</svg>
